<svg xmlns="http://www.w3.org/2000/svg" width="162.187" height="34.97" viewBox="0 0 162.187 34.97">
  <metadata><?xpacket begin="﻿" id="W5M0MpCehiHzreSzNTczkc9d"?>
<x:xmpmeta xmlns:x="adobe:ns:meta/" x:xmptk="Adobe XMP Core 5.6-c142 79.160924, 2017/07/13-01:06:39        ">
   <rdf:RDF xmlns:rdf="http://www.w3.org/1999/02/22-rdf-syntax-ns#">
      <rdf:Description rdf:about=""/>
   </rdf:RDF>
</x:xmpmeta>
                                                                                                    
                                                                                                    
                                                                                                    
                                                                                                    
                                                                                                    
                                                                                                    
                                                                                                    
                                                                                                    
                                                                                                    
                                                                                                    
                                                                                                    
                                                                                                    
                                                                                                    
                                                                                                    
                                                                                                    
                                                                                                    
                                                                                                    
                                                                                                    
                                                                                                    
                                                                                                    
                           
<?xpacket end="w"?></metadata>
<defs>
    <style>
      .cls-1 {
        fill: #ffc600;
        fill-rule: evenodd;
      }
    </style>
  </defs>
  <path id="logo" class="cls-1" d="M151.163,5562.9H137.722v33.61h13.441c9.265,0,16.321-7.3,16.321-16.8S160.428,5562.9,151.163,5562.9Zm0,26.21H145.4V5570.3h5.76c5.28,0,8.929,3.64,8.929,9.41S156.443,5589.11,151.163,5589.11Zm28.8,0v-5.95h12v-7.3h-12v-5.56h13.2v-7.4H172.281v33.61H193.4v-7.4H179.962Zm26.3,7.4h9.793L227,5562.9h-8.4l-7.441,24.73-7.44-24.73h-8.4Zm24.1-33.61v33.61h7.68V5562.9h-7.68Zm29.953,34.28a16.647,16.647,0,0,0,14.4-7.78l-6.624-3.84a8.639,8.639,0,0,1-7.777,4.13c-5.952,0-9.793-3.98-9.793-9.98s3.841-9.99,9.793-9.99a8.693,8.693,0,0,1,7.777,4.13l6.624-3.84a16.766,16.766,0,0,0-14.4-7.78A17.475,17.475,0,0,0,260.314,5597.18Zm26.159-8.07v-5.95h12v-7.3h-12v-5.56h13.2v-7.4H278.793v33.61h21.122v-7.4H286.473Z" transform="translate(-137.719 -5562.22)"/>
</svg>
