<svg xmlns="http://www.w3.org/2000/svg" width="162.188" height="34.938" viewBox="0 0 162.188 34.938">
  <metadata><?xpacket begin="﻿" id="W5M0MpCehiHzreSzNTczkc9d"?>
<x:xmpmeta xmlns:x="adobe:ns:meta/" x:xmptk="Adobe XMP Core 5.6-c142 79.160924, 2017/07/13-01:06:39        ">
   <rdf:RDF xmlns:rdf="http://www.w3.org/1999/02/22-rdf-syntax-ns#">
      <rdf:Description rdf:about=""/>
   </rdf:RDF>
</x:xmpmeta>
                                                                                                    
                                                                                                    
                                                                                                    
                                                                                                    
                                                                                                    
                                                                                                    
                                                                                                    
                                                                                                    
                                                                                                    
                                                                                                    
                                                                                                    
                                                                                                    
                                                                                                    
                                                                                                    
                                                                                                    
                                                                                                    
                                                                                                    
                                                                                                    
                                                                                                    
                                                                                                    
                           
<?xpacket end="w"?></metadata>
<defs>
    <style>
      .cls-1 {
        fill-rule: evenodd;
      }
    </style>
  </defs>
  <path id="logo" class="cls-1" d="M213.943,23.637H200.5v33.6h13.441c9.265,0,16.321-7.3,16.321-16.8S223.208,23.637,213.943,23.637Zm0,26.21h-5.761V31.03h5.761c5.28,0,8.929,3.648,8.929,9.409S219.223,49.848,213.943,49.848Zm28.8,0V43.9h12V36.6h-12V31.03h13.2V23.637H235.061v33.6h21.122V49.848H242.742Zm26.3,7.393h9.793l10.945-33.6h-8.4L273.942,48.36,266.5,23.637h-8.4Zm24.1-33.6v33.6h7.68v-33.6h-7.68Zm29.953,34.275a16.639,16.639,0,0,0,14.4-7.777l-6.624-3.84a8.633,8.633,0,0,1-7.777,4.128c-5.952,0-9.793-3.984-9.793-9.985s3.841-9.985,9.793-9.985a8.688,8.688,0,0,1,7.777,4.128l6.624-3.84a16.758,16.758,0,0,0-14.4-7.777,17.034,17.034,0,0,0-17.473,17.474A17.034,17.034,0,0,0,323.094,57.912Zm26.159-8.065V43.9h12V36.6h-12V31.03h13.2V23.637H341.573v33.6H362.7V49.848H349.253Z" transform="translate(-200.5 -22.969)"/>
</svg>
